# xmcd CD database file
#
# Track frame offsets:
#	150
#	5692
#	19287
#	29327
#	39427
#	51902
#	63567
#	76225
#	86517
#	97407
#	107630
#	119522
#	128667
#	139367
#	151242
#	164632
#
# Disc length: 2329 seconds
#
# Revision: 3
# Processed by: cddbd v1.4PL0 Copyright (c) Steve Scherf et al.
# Submitted via: CDex 1.40Beta8
#
DISCID=dc091710
DTITLE=Skeeter Davis - RCA Country Legends - Skeeter Davis
DYEAR=2001
DGENRE=Country
TTITLE0=Rock-A-Bye Boogie (Live)
TTITLE1=Forgot More Than You Ever Know
TTITLE2=Foggy Mountain Top
TTITLE3=Single Girl (Previously Unreleased In USA)
TTITLE4=(I Can't Help You) I'm Falling Too
TTITLE5=My Last Date (With You)
TTITLE6=He Says The Same Things To Me
TTITLE7=I Can't Believe It's All Over
TTITLE8=Oh Boy!
TTITLE9=There's A Fool Born Every Minute
TTITLE10=The End Of The World
TTITLE11=I'm Saving My Love
TTITLE12=Gonna Get Along Without You Now
TTITLE13=What Does It Take (To Keep A Man Like You Satisfied)
TTITLE14=Busfare To Kentucky
TTITLE15=Homebreaker
EXTD=YEAR: 2001 ID3G: 2
EXTT0=
EXTT1=
EXTT2=
EXTT3=
EXTT4=
EXTT5=
EXTT6=
EXTT7=
EXTT8=
EXTT9=
EXTT10=
EXTT11=
EXTT12=
EXTT13=
EXTT14=
EXTT15=
PLAYORDER=
